<svg
  version="1.1"
  xmlns="http://www.w3.org/2000/svg"
  xmlns:xlink="http://www.w3.org/1999/xlink"
  viewBox="0 0 200 200"
  xml:space="preserve"
>
   <style>
    :root {
			--hsl-white: 300, 100%, 100%;
      --hsl-yellow: 320, 99%, 55%;
			--hsl-red: 335, 100%, 52%;
			--hsl-blue: 186, 99%, 28%;
			--hsl-pink-l: 0, 98%, 90%;
      --hsl-green-d: 170, 73%, 16%;
    }

     .fill-pink {
      fill: #ff7088;
      opacity: 0.6;
    }
    .stroke-black {
      fill: none;
      stroke: #000;
      stroke-width: 3;
    }
    .nose {
      fill: #000;
      opacity: 0.6;
    }
    .freckle {
      fill: #ebc68e;
    }
    .cheek {
      fill: url(#cheek);
    }
    .hair {
      fill: #263238;
      stroke: #263238;
      stroke-width: 3;
      stroke-linejoin: round;
    }
    .skin {
      fill: #ffc670;
      stroke: none;
    }
    .shadow {
      fill: #000;
      opacity:0.03;
    }
    </style>

  <defs>
    <radialGradient id="cheek" cx="50%" cy="50%" r="50%" fx="50%" fy="50%">
      <stop offset="0%" stop-color="hsla(350, 100%, 82%,.2)" stop-opacity='1' />
      <stop offset="100%" stop-color="hsl(36, 100%, 72%)" stop-opacity='1' />
    </radialGradient>
  </defs>

  <g transform="translate(-25,-425) scale(.5)">
    <g fill='white'>
      <rect x='0' y='0' width='700' height='1400' />
    </g>

    <g fill='hsl(var(--hsl-blue))'>
      <path d='M0,0 l200,0 -200,200Z' />
      <path d='M0,300 l200,0 0,200Z' />
      <rect x='300' y='300' width='300' height='300' />
      <rect x='320' y='800' width='20' height='200' />
      <rect x='360' y='800' width='20' height='200' />
      <rect x='400' y='800' width='20' height='200' />
      <rect x='440' y='800' width='20' height='200' />
      <rect x='480' y='800' width='20' height='200' />
      <circle r='50' cx='50' cy='1050' />
      <path d='M400,1000 l100,0 a100,100 0 0 0 0,200 l-100,0Z' />
      <circle r='100' cx='100' cy='1300' />
      <rect x='500' y='1200' width='200' height='200' />
    </g>

    <g fill='hsl(var(--hsl-yellow))'>
      <rect x='200' y='0' width='500' height='20' />
      <rect x='200' y='40' width='500' height='20' />
      <rect x='200' y='80' width='500' height='20' />
      <rect x='200' y='120' width='500' height='20' />
      <rect x='200' y='160' width='500' height='20' />
      <rect x='400' y='0' width='200' height='200' />
      <circle r='50' cx='350' cy='250' />
      <circle r='50' cx='650' cy='250' />
      <path
        d='M200,300 l100,0 0,200 -100,0Z M200,350 a50,50 0 0 0 100,0 50,50 0 0 0 -100,0Z M200,450 a50,50 0 0 0 100,0 50,50 0 0 0 -100,0Z'
      />
      <rect x='0' y='500' width='100' height='400' />
      <path d='M100,900 l0,100 a100,100 0 0 1 -100,-100Z' />
      <rect x='300' y='1000' width='100' height='200' />
      <rect x='200' y='1300' width='100' height='100' />
      <rect x='500' y='1300' width='100' height='100' />
    </g>

    <g fill='hsl(var(--hsl-red))'>
      <rect x='120' y='600' width='20' height='200' />
      <rect x='160' y='600' width='20' height='200' />
      <rect x='200' y='600' width='20' height='200' />
      <rect x='240' y='600' width='20' height='200' />
      <rect x='280' y='600' width='20' height='200' />
      <rect x='320' y='600' width='20' height='200' />
      <rect x='360' y='600' width='20' height='200' />
      <rect x='400' y='600' width='20' height='200' />
      <rect x='440' y='600' width='20' height='200' />
      <rect x='480' y='600' width='20' height='200' />
    </g>

    <g fill='hsl(var(--hsl-pink-l))'>
      <path d='M0,200 l200,0 0,-200Z' />
      <rect x='0' y='220' width='100' height='20' />
      <rect x='0' y='260' width='100' height='20' />
      <path
        d='M0,300 l200,200 -200,0Z M10,450 a40,40 0 0 0 80,0 a40,40 0 0 0 -80,0Z'
      />
      <path d='M200,0 l50,100 50,-100Z' />
      <path d='M300,0 l50,100 50,-100Z' />
      <path d='M400,0 l50,100 50,-100Z' />
      <path d='M500,0 l50,100 50,-100Z' />
      <path d='M600,0 l50,100 50,-100Z' />
      <rect x='200' y='200' width='100' height='100' />
      <rect x='400' y='200' width='100' height='100' />
      <path d='M600,300 l100,0 0,300 -100,-100Z' />
      <path d='M300,600 a100,100 0 0 1 200,0Z' />
      <path d='M0,700 l50,-100 50,100Z' />
      <path d='M100,600 a100,100 0 0 0 200,0Z' />
      <rect x='500' y='600' width='100' height='200' />
      <path d='M0,900 l50,-100 50,100Z' />
      <path d='M300,900 a100,100 0 0 1 100,100 l-100,0Z' />
      <path d='M100,1000 l0,100 a100,100 0 0 1 200,0 l0,-100Z' />
      <path
        d='M500,1000 l200,0 0,200 -200,0Z M610,1050 a40,40 0 0 0 80,0 a40,40 0 0 0 -80,0Z M610,1150 a40,40 0 0 0 80,0 a40,40 0 0 0 -80,0Z'
      />
      <path d='M0,1100 a100,100 0 0 1 100,100 l-100,0Z' />
      <path d='M600,1300 a100,100 0 0 1 100,100 l-100,0Z' />
    </g>

    <g fill='hsl(var(--hsl-green-d))'>
      <path d='M300,200 l50,-100 50,100Z' />
      <path d='M600,200 l50,-100 50,100Z' />
      <path d='M600,300 l100,100 -100,0Z' />
      <rect x='100' y='500' width='200' height='100' />
      <rect x='600' y='600' width='100' height='200' />
      <rect x='100' y='800' width='200' height='200' />
      <rect x='500' y='820' width='200' height='20' />
      <rect x='500' y='860' width='200' height='20' />
      <rect x='500' y='900' width='200' height='20' />
      <rect x='500' y='940' width='200' height='20' />
      <rect x='500' y='980' width='200' height='20' />
      <circle r='50' cx='350' cy='1050' />
      <circle r='50' cx='350' cy='1150' />
      <path d='M0,1200 l200,200 -200,0Z' />
      <circle r='40' cx='650' cy='1250' />
      <path d='M300,1200 l200,0 0,200 -100,0 a100,100 0 0 0 -100,-100Z' />
    </g>

    <g fill='hsl(var(--hsl-pink-l))'>
      <path d='M300,1200 l100,0 a100,100 0 0 1 -100,100 Z' />
      <path d='M400,1400 a100,100 0 0 1 100,-100 l0,100Z' />
    </g>

    <g fill='hsl(var(--hsl-red))'>
      <circle r='40' cx='150' cy='150' />
      <path d='M200,200 l0,-50 a50,50 0 1 1 50,50Z' />
      <path d='M100,200 l100,0 0,150 a50,50 0 0 1 -100,0Z' />
      <circle r='40' cx='450' cy='150' />
      <path d='M500,200 l0,-100 a100,100 0 0 1 100,100Z' />
      <path d='M500,200 l0,100 100,0 a100,100 0 1 1 -100,-100Z' />
      <path d='M100,600 a100,100 0 0 1 200,0Z' />
      <rect x='400' y='600' width='200' height='20' />
      <rect x='400' y='640' width='200' height='20' />
      <rect x='400' y='680' width='200' height='20' />
      <rect x='400' y='720' width='200' height='20' />
      <rect x='400' y='760' width='200' height='20' />
      <path d='M400,800  a100,100 0 0 0 200,0Z' />
      <path d='M400,1100 a100,100 0 1 1 100,100 l0,-100Z' />
      <rect x='100' y='1100' width='200' height='200' />
      <path d='M500,1200 l0,100 a100,100 0 0 1 -100,-100Z' />
      <path d='M500,1300 l0,-50 a50,50 0 1 1 50,50Z' />
    </g>

    <g fill='hsl(var(--hsl-yellow))'>
      <path d='M700,400 l0,100 -100,0Z' />
    </g>

    <g fill='hsl(var(--hsl-blue))'>
      <path d='M0,500 l50,100 50,-100Z' />
      <path d='M0,700 l50,100 50,-100Z' />
      <circle r='40' cx='150' cy='850' />
      <circle r='40' cx='250' cy='850' />
      <circle r='40' cx='250' cy='950' />
      <circle r='40' cx='150' cy='950' />
    </g>
	</g>


  <g transform="translate(100,112) scale(1)">
    <path
      class="hair"
      d="M-70,60 l0-70 a70,70 0 0 1 140,0 l0,70 q-50,-10 -70-22 q-20,10 -70,22Z"
    />
    <path
      class="skin"
      d="M-30-45 a50,60 0 0 1 60,0 a60,60 0 0 1 15,50 a7,7 0 1 1 0,5 q0,20 -30,33 q-15,8 -30,0 q-30,-13 -30-33 a7,7 0 1 1 0,-5 a60,60 0 0 1 15,-50Z"
    />
    <path class="stroke-black" d="M-14,5 q-8,-7 -18,-3 q-2-1 -3-2" />
    <path class="stroke-black" d="M-29,1 l-3-3" />
    <path class="stroke-black" d="M14,5 q8,-7 18,-3 q2-1 3-2" />
    <path class="stroke-black" d="M29,1 l3-3" />
    <circle class="nose" cx="-3" cy="15" r="1.25" />
    <circle class="nose" cx="3" cy="15" r="1.25" />
    <ellipse
      class="cheek"
      cx="-28"
      cy="14"
      rx="12"
      ry="10"
      transform="rotate(15,-28,14)"
    />
    <ellipse
      class="cheek"
      cx="28"
      cy="14"
      rx="12"
      ry="10"
      transform="rotate(-15,28,14)"
    />
    <circle class="freckle" cx="-21" cy="11" r="1" />
    <circle class="freckle" cx="-30" cy="13" r="1" />
    <circle class="freckle" cx="-27" cy="10" r="1" />
    <circle class="freckle" cx="-25" cy="14" r="1" />
    <circle class="freckle" cx="21" cy="11" r="1" />
    <circle class="freckle" cx="25" cy="14" r="1" />
    <circle class="freckle" cx="27" cy="10" r="1" />
    <circle class="freckle" cx="30" cy="13" r="1" />
    <circle class="freckle" cx="33" cy="8" r="1" />
    <path
      class="fill-pink"
      d="M-6,23 a7,6 0 1 0 12,0 q-5,-2 -6,0 q-1,-2 -6,0Z"
    />
    <path class="shadow" d="M12,-62 a45,45 0 0 0 33,70 a60,60 0 0 0 -33,-70" />
    <path
      class="shadow"
      d="M25,-65 a70,70 0 0 1 -50,65 q0,30 -5,40 l-29,0 l0-50 a70,70 0 0 1 70,-60 "
    />
    <path class="hair" d="M14,-70 a45,45 0 0 0 33,70 a60,60 0 0 0 -33,-70" />

    <path
      class="hair"
      d="M20,-70 a70,70 0 0 1 -50,65 q0,30 -5,40 l-29,0 l0-50 a70,70 0 0 1 70,-60 "
    />
    <path class="shadow" d="M0,-105 a100,100 0 0 0 0,200" />
  </g>
</svg>
